<mxfile host="Electron" modified="2023-11-14T17:11:54.404Z" agent="Mozilla/5.0 (Windows NT 10.0; Win64; x64) AppleWebKit/537.36 (KHTML, like Gecko) draw.io/22.0.3 Chrome/114.0.5735.289 Electron/25.8.4 Safari/537.36" etag="ioKYrtY7v_ms7g43H3i1" version="22.0.3" type="device">
  <diagram name="Page-1" id="uUxzx2YNWYu9K1Dra2-y">
    <mxGraphModel dx="1036" dy="606" grid="1" gridSize="10" guides="1" tooltips="1" connect="1" arrows="1" fold="1" page="1" pageScale="1" pageWidth="850" pageHeight="1100" math="0" shadow="0">
      <root>
        <mxCell id="0" />
        <mxCell id="1" parent="0" />
        <mxCell id="Vo_MrkT3tkwy209WUOFP-3" value="" style="edgeStyle=orthogonalEdgeStyle;rounded=0;orthogonalLoop=1;jettySize=auto;html=1;" edge="1" parent="1" source="Vo_MrkT3tkwy209WUOFP-1" target="Vo_MrkT3tkwy209WUOFP-2">
          <mxGeometry relative="1" as="geometry" />
        </mxCell>
        <mxCell id="Vo_MrkT3tkwy209WUOFP-1" value="start" style="ellipse;whiteSpace=wrap;html=1;" vertex="1" parent="1">
          <mxGeometry x="340" y="10" width="120" height="80" as="geometry" />
        </mxCell>
        <mxCell id="Vo_MrkT3tkwy209WUOFP-5" value="" style="edgeStyle=orthogonalEdgeStyle;rounded=0;orthogonalLoop=1;jettySize=auto;html=1;" edge="1" parent="1" source="Vo_MrkT3tkwy209WUOFP-2" target="Vo_MrkT3tkwy209WUOFP-4">
          <mxGeometry relative="1" as="geometry" />
        </mxCell>
        <mxCell id="Vo_MrkT3tkwy209WUOFP-2" value="i&amp;lt;100" style="rhombus;whiteSpace=wrap;html=1;" vertex="1" parent="1">
          <mxGeometry x="360" y="120" width="80" height="80" as="geometry" />
        </mxCell>
        <mxCell id="Vo_MrkT3tkwy209WUOFP-6" style="edgeStyle=orthogonalEdgeStyle;rounded=0;orthogonalLoop=1;jettySize=auto;html=1;" edge="1" parent="1" source="Vo_MrkT3tkwy209WUOFP-4">
          <mxGeometry relative="1" as="geometry">
            <mxPoint x="230" y="440" as="targetPoint" />
          </mxGeometry>
        </mxCell>
        <mxCell id="Vo_MrkT3tkwy209WUOFP-8" style="edgeStyle=orthogonalEdgeStyle;rounded=0;orthogonalLoop=1;jettySize=auto;html=1;" edge="1" parent="1" source="Vo_MrkT3tkwy209WUOFP-4">
          <mxGeometry relative="1" as="geometry">
            <mxPoint x="600" y="440" as="targetPoint" />
          </mxGeometry>
        </mxCell>
        <mxCell id="Vo_MrkT3tkwy209WUOFP-4" value="i%3==0 &amp;amp;&amp;amp;&amp;nbsp;&lt;br&gt;i%5==0" style="rhombus;whiteSpace=wrap;html=1;" vertex="1" parent="1">
          <mxGeometry x="360" y="280" width="80" height="80" as="geometry" />
        </mxCell>
        <mxCell id="Vo_MrkT3tkwy209WUOFP-26" style="edgeStyle=orthogonalEdgeStyle;rounded=0;orthogonalLoop=1;jettySize=auto;html=1;entryX=0;entryY=0.5;entryDx=0;entryDy=0;" edge="1" parent="1" source="Vo_MrkT3tkwy209WUOFP-7" target="Vo_MrkT3tkwy209WUOFP-25">
          <mxGeometry relative="1" as="geometry">
            <Array as="points">
              <mxPoint x="220" y="1050" />
            </Array>
          </mxGeometry>
        </mxCell>
        <mxCell id="Vo_MrkT3tkwy209WUOFP-7" value="fizzbuzz" style="shape=parallelogram;perimeter=parallelogramPerimeter;whiteSpace=wrap;html=1;fixedSize=1;" vertex="1" parent="1">
          <mxGeometry x="170" y="440" width="120" height="60" as="geometry" />
        </mxCell>
        <mxCell id="Vo_MrkT3tkwy209WUOFP-11" style="edgeStyle=orthogonalEdgeStyle;rounded=0;orthogonalLoop=1;jettySize=auto;html=1;" edge="1" parent="1" source="Vo_MrkT3tkwy209WUOFP-9">
          <mxGeometry relative="1" as="geometry">
            <mxPoint x="770" y="670" as="targetPoint" />
          </mxGeometry>
        </mxCell>
        <mxCell id="Vo_MrkT3tkwy209WUOFP-13" style="edgeStyle=orthogonalEdgeStyle;rounded=0;orthogonalLoop=1;jettySize=auto;html=1;" edge="1" parent="1" source="Vo_MrkT3tkwy209WUOFP-9">
          <mxGeometry relative="1" as="geometry">
            <mxPoint x="420" y="620" as="targetPoint" />
          </mxGeometry>
        </mxCell>
        <mxCell id="Vo_MrkT3tkwy209WUOFP-9" value="i%3 == 0" style="rhombus;whiteSpace=wrap;html=1;" vertex="1" parent="1">
          <mxGeometry x="560" y="440" width="80" height="80" as="geometry" />
        </mxCell>
        <mxCell id="Vo_MrkT3tkwy209WUOFP-29" style="edgeStyle=orthogonalEdgeStyle;rounded=0;orthogonalLoop=1;jettySize=auto;html=1;" edge="1" parent="1" source="Vo_MrkT3tkwy209WUOFP-12">
          <mxGeometry relative="1" as="geometry">
            <mxPoint x="620" y="1050" as="targetPoint" />
            <Array as="points">
              <mxPoint x="770" y="1050" />
            </Array>
          </mxGeometry>
        </mxCell>
        <mxCell id="Vo_MrkT3tkwy209WUOFP-12" value="fizz" style="shape=parallelogram;perimeter=parallelogramPerimeter;whiteSpace=wrap;html=1;fixedSize=1;" vertex="1" parent="1">
          <mxGeometry x="710" y="670" width="120" height="60" as="geometry" />
        </mxCell>
        <mxCell id="Vo_MrkT3tkwy209WUOFP-15" style="edgeStyle=orthogonalEdgeStyle;rounded=0;orthogonalLoop=1;jettySize=auto;html=1;" edge="1" parent="1" source="Vo_MrkT3tkwy209WUOFP-14">
          <mxGeometry relative="1" as="geometry">
            <mxPoint x="420" y="860" as="targetPoint" />
          </mxGeometry>
        </mxCell>
        <mxCell id="Vo_MrkT3tkwy209WUOFP-22" style="edgeStyle=orthogonalEdgeStyle;rounded=0;orthogonalLoop=1;jettySize=auto;html=1;" edge="1" parent="1" source="Vo_MrkT3tkwy209WUOFP-14">
          <mxGeometry relative="1" as="geometry">
            <mxPoint x="620" y="870" as="targetPoint" />
          </mxGeometry>
        </mxCell>
        <mxCell id="Vo_MrkT3tkwy209WUOFP-14" value="i%5==0" style="rhombus;whiteSpace=wrap;html=1;" vertex="1" parent="1">
          <mxGeometry x="380" y="620" width="80" height="80" as="geometry" />
        </mxCell>
        <mxCell id="Vo_MrkT3tkwy209WUOFP-27" style="edgeStyle=orthogonalEdgeStyle;rounded=0;orthogonalLoop=1;jettySize=auto;html=1;entryX=0.5;entryY=0;entryDx=0;entryDy=0;" edge="1" parent="1" source="Vo_MrkT3tkwy209WUOFP-16" target="Vo_MrkT3tkwy209WUOFP-25">
          <mxGeometry relative="1" as="geometry" />
        </mxCell>
        <mxCell id="Vo_MrkT3tkwy209WUOFP-16" value="buzz" style="shape=parallelogram;perimeter=parallelogramPerimeter;whiteSpace=wrap;html=1;fixedSize=1;" vertex="1" parent="1">
          <mxGeometry x="360" y="860" width="120" height="60" as="geometry" />
        </mxCell>
        <mxCell id="Vo_MrkT3tkwy209WUOFP-17" value="true" style="text;html=1;strokeColor=none;fillColor=none;align=center;verticalAlign=middle;whiteSpace=wrap;rounded=0;" vertex="1" parent="1">
          <mxGeometry x="240" y="290" width="60" height="30" as="geometry" />
        </mxCell>
        <mxCell id="Vo_MrkT3tkwy209WUOFP-18" value="false" style="text;html=1;strokeColor=none;fillColor=none;align=center;verticalAlign=middle;whiteSpace=wrap;rounded=0;" vertex="1" parent="1">
          <mxGeometry x="500" y="290" width="60" height="30" as="geometry" />
        </mxCell>
        <mxCell id="Vo_MrkT3tkwy209WUOFP-19" value="false" style="text;html=1;strokeColor=none;fillColor=none;align=center;verticalAlign=middle;whiteSpace=wrap;rounded=0;" vertex="1" parent="1">
          <mxGeometry x="450" y="455" width="60" height="30" as="geometry" />
        </mxCell>
        <mxCell id="Vo_MrkT3tkwy209WUOFP-20" value="true" style="text;html=1;strokeColor=none;fillColor=none;align=center;verticalAlign=middle;whiteSpace=wrap;rounded=0;" vertex="1" parent="1">
          <mxGeometry x="680" y="455" width="60" height="30" as="geometry" />
        </mxCell>
        <mxCell id="Vo_MrkT3tkwy209WUOFP-21" value="true" style="text;html=1;strokeColor=none;fillColor=none;align=center;verticalAlign=middle;whiteSpace=wrap;rounded=0;" vertex="1" parent="1">
          <mxGeometry x="370" y="750" width="60" height="30" as="geometry" />
        </mxCell>
        <mxCell id="Vo_MrkT3tkwy209WUOFP-28" style="edgeStyle=orthogonalEdgeStyle;rounded=0;orthogonalLoop=1;jettySize=auto;html=1;entryX=1;entryY=0.5;entryDx=0;entryDy=0;" edge="1" parent="1" source="Vo_MrkT3tkwy209WUOFP-23" target="Vo_MrkT3tkwy209WUOFP-25">
          <mxGeometry relative="1" as="geometry">
            <Array as="points">
              <mxPoint x="620" y="1050" />
            </Array>
          </mxGeometry>
        </mxCell>
        <mxCell id="Vo_MrkT3tkwy209WUOFP-23" value="i" style="shape=parallelogram;perimeter=parallelogramPerimeter;whiteSpace=wrap;html=1;fixedSize=1;" vertex="1" parent="1">
          <mxGeometry x="560" y="870" width="120" height="60" as="geometry" />
        </mxCell>
        <mxCell id="Vo_MrkT3tkwy209WUOFP-24" value="false" style="text;html=1;strokeColor=none;fillColor=none;align=center;verticalAlign=middle;whiteSpace=wrap;rounded=0;" vertex="1" parent="1">
          <mxGeometry x="480" y="620" width="60" height="30" as="geometry" />
        </mxCell>
        <mxCell id="Vo_MrkT3tkwy209WUOFP-25" value="ebd" style="ellipse;whiteSpace=wrap;html=1;" vertex="1" parent="1">
          <mxGeometry x="360" y="1010" width="120" height="80" as="geometry" />
        </mxCell>
      </root>
    </mxGraphModel>
  </diagram>
</mxfile>
